<svg xmlns="http://www.w3.org/2000/svg" width="31.919" height="22.799" viewBox="0 0 31.919 22.799">
  <path id="Icon_zocial-cart" data-name="Icon zocial-cart" d="M-2.07,5.991a1.276,1.276,0,0,1,.37-.94,1.272,1.272,0,0,1,.94-.37h6.7a1.306,1.306,0,0,1,.812.271,1.266,1.266,0,0,1,.47.727L7.9,8.47H27.113l.2-.6a1.179,1.179,0,0,1,1.225-.912.877.877,0,0,1,.37.057,1.227,1.227,0,0,1,.684.456,1.245,1.245,0,0,1,.257.769,1.592,1.592,0,0,1-.057.37l-3.363,11.2a1.226,1.226,0,0,1-.456.684,1.252,1.252,0,0,1-.769.256H9.273a1.267,1.267,0,0,1-.812-.284,1.331,1.331,0,0,1-.47-.713L4.912,7.273H-.759a1.289,1.289,0,0,1-.926-.37A1.216,1.216,0,0,1-2.07,5.991Zm10.6,5.073L10.3,18.132H24.235l.056-.256,2.053-6.811H8.532Zm1.2,13.794a2.5,2.5,0,0,1,.784-1.852,2.574,2.574,0,0,1,1.867-.769,2.622,2.622,0,0,1,0,5.243,2.573,2.573,0,0,1-1.867-.769A2.5,2.5,0,0,1,9.729,24.858Zm1.852-11.571h4.731v2.621H12.15Zm6.982,2.622.028-2.621h4.617l-.684,2.621Zm1.054,8.949a2.5,2.5,0,0,1,.785-1.852,2.571,2.571,0,0,1,1.867-.769,2.622,2.622,0,0,1,0,5.243A2.572,2.572,0,0,1,20.4,26.71,2.5,2.5,0,0,1,19.618,24.858Z" transform="translate(2.07 -4.68)" fill="#028a81" opacity="0.49"/>
</svg>
